PathFileType	4	(X/Y/Z)	/Users/itak/Documents/Research/Walk-IL/dataset/trc/00335_00011.trc
DataRate	CameraRate	NumFrames	NumMarkers	Units	OrigDataRate	OrigDataStartFrame	OrigNumFrames
100.000000	100.000000	4	55	mm	100.000000	0	537
Frame#	Time	RPSI			LPSI			L3			STRN			T10			C7			CLAV			RBAK			LBAK			LSHO			LUPA			LAEL			LAOL			LWTS			LWPS			LFRA			LIFD			LHPS			LHTS			RSHO			RUPA			RAEL			RAOL			RWTS			RWPS			RFRA			RIFD			RHTS			RHPS			RBHD			LFHD			RFHD			LBHD			LHIP			RHIP			RASI			LASI			LKNE			LTHI			LANK			LTIP			LTOE			LMT5			LHEE			RKNE			RTHI			RANK			RTIP			RTOE			RMT1			RMT5			RHEE			LMT1			*53			*54			
		X1	Y1	Z1	X2	Y2	Z2	X3	Y3	Z3	X4	Y4	Z4	X5	Y5	Z5	X6	Y6	Z6	X7	Y7	Z7	X8	Y8	Z8	X9	Y9	Z9	X10	Y10	Z10	X11	Y11	Z11	X12	Y12	Z12	X13	Y13	Z13	X14	Y14	Z14	X15	Y15	Z15	X16	Y16	Z16	X17	Y17	Z17	X18	Y18	Z18	X19	Y19	Z19	X20	Y20	Z20	X21	Y21	Z21	X22	Y22	Z22	X23	Y23	Z23	X24	Y24	Z24	X25	Y25	Z25	X26	Y26	Z26	X27	Y27	Z27	X28	Y28	Z28	X29	Y29	Z29	X30	Y30	Z30	X31	Y31	Z31	X32	Y32	Z32	X33	Y33	Z33	X34	Y34	Z34	X35	Y35	Z35	X36	Y36	Z36	X37	Y37	Z37	X38	Y38	Z38	X39	Y39	Z39	X40	Y40	Z40	X41	Y41	Z41	X42	Y42	Z42	X43	Y43	Z43	X44	Y44	Z44	X45	Y45	Z45	X46	Y46	Z46	X47	Y47	Z47	X48	Y48	Z48	X49	Y49	Z49	X50	Y50	Z50	X51	Y51	Z51	X52	Y52	Z52	X53	Y53	Z53	X54	Y54	Z54	X55	Y55	Z55	

1	0	890.3845825195312	973.0302734375	180.7541198730469	887.3193969726562	974.2594604492188	52.79839324951172	887.9555053710938	1022.561584472656	122.1291809082031	1103.292846679688	1215.222045898438	101.9146499633789	866.4558715820312	1141.461303710938	113.542610168457	895.053466796875	1391.034057617188	92.90214538574219	1054.722045898438	1339.018676757812	96.98736572265625	855.5263061523438	1252.380859375	164.4271697998047	887.25830078125	1351.198486328125	-8.172286033630371	971.3316650390625	1371.223510742188	-65.65330505371094	961.6554565429688	1248.95703125	-130.7674255371094	994.5833740234375	1045.182495117188	-132.8827819824219	930.083740234375	1030.884765625	-78.99921417236328	1097.268188476562	807.3310546875	-70.95270538330078	1063.922973632812	793.6099853515625	-130.0601959228516	1016.047790527344	941.9227294921875	-134.3170318603516	1105.848876953125	646.7363891601562	-62.55949401855469	1063.052856445312	723.6355590820312	-122.9362106323242	1112.6455078125	728.4924926757812	-83.24072265625	958.7342529296875	1382.044799804688	255.177001953125	952.2671508789062	1317.904907226562	321.1683044433594	971.7581176757812	1049.31201171875	352.7909545898438	928.3311157226562	1039.661987304688	271.9389343261719	1081.7265625	824.3970336914062	292.2453308105469	1054.465942382812	807.892333984375	362.5779113769531	1001.520874023438	982.8320922851562	359.5713806152344	1100.724609375	650.219970703125	301.8492126464844	1113.080444335938	722.6146240234375	303.5409851074219	1070.615478515625	724.3689575195312	358.1996765136719	922.708251953125	1593.886596679688	173.3288421630859	1090.019775390625	1623.62890625	52.76385498046875	1081.16552734375	1624.06005859375	153.4303588867188	908.4837646484375	1585.861083984375	29.34778594970703	967.7394409179688	914.3657836914062	-53.81143569946289	972.3125610351562	914.5745849609375	287.0274353027344	1076.20947265625	942.4122924804688	242.4402465820312	1091.692749023438	939.0988159179688	0.7786280512809753	985.595703125	454.1340942382812	-38.43188095092773	995.890625	594.2330322265625	-48.97607421875	898.7594604492188	39.30374526977539	-20.29502868652344	938.9537963867188	241.1546020507812	-41.89492034912109	1105.494995117188	31.89261627197266	37.00857925415039	1024.390014648438	34.56441879272461	-34.81882476806641	865.2694091796875	33.28493118286133	46.79592132568359	968.4304809570312	452.9727172851562	259.488525390625	1027.839233398438	708.3834228515625	287.0553283691406	903.3116455078125	43.72133636474609	228.7223815917969	968.0697631835938	336.2368469238281	251.7726135253906	1096.94873046875	32.33940887451172	182.951171875	1041.875854492188	30.57161903381348	141.1144714355469	1002.432067871094	28.23730850219727	252.7099914550781	852.4400634765625	43.5241813659668	181.5757446289062	1035.7646484375	19.84723091125488	77.45515441894531	nan	nan	nan	nan	nan	nan	
2	0.01	890.350341796875	973.0354614257812	180.6742858886719	887.3667602539062	974.2522583007812	52.7362060546875	887.9603881835938	1022.554565429688	122.0519104003906	1103.311401367188	1215.216918945312	101.8294906616211	866.4666137695312	1141.468139648438	113.4643707275391	895.1062622070312	1391.055541992188	92.75648498535156	1054.760009765625	1338.9775390625	96.9017333984375	855.5438842773438	1252.416381835938	164.3495025634766	887.2905883789062	1351.190063476562	-8.290951728820801	971.37353515625	1371.225830078125	-65.72745513916016	961.6482543945312	1249.000244140625	-130.9120788574219	994.4240112304688	1045.219848632812	-133.1422882080078	929.9518432617188	1030.923950195312	-79.24568939208984	1096.810180664062	807.1282348632812	-71.62835693359375	1063.423950195312	793.6058349609375	-130.6832275390625	1015.755187988281	941.9202880859375	-134.6844787597656	1105.087768554688	646.3978271484375	-63.34090042114258	1062.34765625	723.5491943359375	-123.6153335571289	1112.085571289062	728.3521118164062	-84.04673004150391	958.8038940429688	1382.062744140625	255.1085815429688	952.2144165039062	1317.9375	321.0604553222656	971.7120971679688	1049.352416992188	352.7566223144531	928.359375	1039.686767578125	271.8780212402344	1081.588745117188	824.3441162109375	292.41259765625	1054.356323242188	807.8910522460938	362.7490844726562	1001.484680175781	982.922607421875	359.7106628417969	1100.597900390625	650.2006225585938	302.1473999023438	1112.92431640625	722.63232421875	303.7082824707031	1070.40283203125	724.4153442382812	358.3576049804688	922.7167358398438	1593.903930664062	173.1906280517578	1090.035400390625	1623.57568359375	52.6229248046875	1081.228393554688	1624.1015625	153.2573394775391	908.5241088867188	1585.846923828125	29.23570823669434	967.7539672851562	914.3648071289062	-53.8368034362793	972.2609252929688	914.6114501953125	286.9723510742188	1076.140869140625	942.4384155273438	242.4299011230469	1091.709716796875	939.0794067382812	0.7490606307983398	985.5748901367188	454.1238098144531	-38.44145202636719	995.9047241210938	594.2130737304688	-48.99434280395508	898.7530517578125	39.30967712402344	-20.29487228393555	938.9498291015625	241.1502990722656	-41.89746475219727	1105.493408203125	31.88886070251465	37.00166320800781	1024.389892578125	34.5697021484375	-34.81476593017578	865.2682495117188	33.27855682373047	46.79982757568359	968.404541015625	452.977294921875	259.4746704101562	1027.936645507812	708.4335327148438	286.98046875	903.3023681640625	43.70466613769531	228.7336273193359	968.0455322265625	336.265625	251.7429809570312	1096.939819335938	32.33375930786133	182.9496002197266	1041.87451171875	30.56921195983887	141.1152191162109	1002.430114746094	28.24139595031738	252.7115783691406	852.4423828125	43.52342987060547	181.5680084228516	1035.764038085938	19.83661651611328	77.46092224121094	nan	nan	nan	nan	nan	nan	
3	0.02	890.3090209960938	973.0426025390625	180.5740203857422	887.426513671875	974.2442016601562	52.66049194335938	887.9915161132812	1022.542358398438	121.9629058837891	1103.332397460938	1215.212646484375	101.7256469726562	866.4832153320312	1141.479125976562	113.3679733276367	895.1821899414062	1391.083984375	92.58699035644531	1054.807861328125	1338.928588867188	96.79233551025391	855.5695190429688	1252.460083007812	164.2491149902344	887.3320922851562	1351.183837890625	-8.439480781555176	971.4273681640625	1371.227294921875	-65.81880187988281	961.6392822265625	1249.052734375	-131.0900573730469	994.2230834960938	1045.269165039062	-133.4830474853516	929.7792358398438	1030.976318359375	-79.56264495849609	1096.235107421875	806.8884887695312	-72.45881652832031	1062.789672851562	793.5928344726562	-131.4679107666016	1015.387573242188	941.9248046875	-135.1652984619141	1104.141723632812	646.0091552734375	-64.34159088134766	1061.483032226562	723.4491577148438	-124.4737091064453	1111.387084960938	728.187744140625	-85.055419921875	958.8865356445312	1382.084228515625	255.0178680419922	952.1353759765625	1317.974487304688	320.9102783203125	971.659423828125	1049.401977539062	352.7125549316406	928.3941650390625	1039.72216796875	271.8012084960938	1081.41552734375	824.2780151367188	292.6141052246094	1054.219848632812	807.8902587890625	362.949462890625	1001.404541015625	983.042724609375	359.8651123046875	1100.440185546875	650.1808471679688	302.4908142089844	1112.730834960938	722.6238403320312	303.931396484375	1070.1240234375	724.5028076171875	358.5597229003906	922.7259521484375	1593.925903320312	173.0144805908203	1090.060424804688	1623.52685546875	52.44092559814453	1081.29736328125	1624.147094726562	153.0478057861328	908.5728759765625	1585.830688476562	29.08977890014648	967.7714233398438	914.3648071289062	-53.87088012695312	972.19482421875	914.6508178710938	286.9048461914062	1076.05029296875	942.4722290039062	242.4133453369141	1091.726928710938	939.054443359375	0.7130838632583618	985.5509643554688	454.1133728027344	-38.45553588867188	995.9129638671875	594.1920776367188	-49.02262115478516	898.7470703125	39.31521987915039	-20.2948169708252	938.9439697265625	241.1427307128906	-41.90214538574219	1105.4921875	31.88547706604004	36.99407577514648	1024.388549804688	34.57302856445312	-34.81016540527344	865.2653198242188	33.2701301574707	46.80521774291992	968.3695068359375	452.9821472167969	259.4574890136719	1028.058227539062	708.4895629882812	286.8880920410156	903.294921875	43.68966674804688	228.7416381835938	968.0150146484375	336.3055114746094	251.709228515625	1096.927612304688	32.32956695556641	182.945556640625	1041.872314453125	30.56645202636719	141.1166534423828	1002.427368164062	28.24650764465332	252.7135314941406	852.4436645507812	43.52203750610352	181.5596160888672	1035.7626953125	19.82676124572754	77.46640777587891	nan	nan	nan	nan	nan	nan	
4	0.03	890.2626953125	973.0521850585938	180.457763671875	887.4955444335938	974.2362670898438	52.57540130615234	888.0455322265625	1022.525939941406	121.8661041259766	1103.354736328125	1215.210083007812	101.6088485717773	866.5032958984375	1141.495239257812	113.2583084106445	895.2793579101562	1391.117431640625	92.40439605712891	1054.865112304688	1338.876831054688	96.66349792480469	855.6029663085938	1252.509033203125	164.1283416748047	887.3801879882812	1351.181396484375	-8.610062599182129	971.4918823242188	1371.227294921875	-65.92356872558594	961.6292724609375	1249.111450195312	-131.2910308837891	993.9852905273438	1045.327514648438	-133.8944396972656	929.5711059570312	1031.041870117188	-79.93817138671875	1095.566162109375	806.6264038085938	-73.40620422363281	1062.046997070312	793.5673828125	-132.3800506591797	1014.960876464844	941.9398193359375	-135.7456665039062	1103.057373046875	645.603515625	-65.52538299560547	1060.501831054688	723.3408203125	-125.4794235229492	1110.57763671875	728.00244140625	-86.22132110595703	958.9755249023438	1382.107543945312	254.90673828125	952.0274047851562	1318.012573242188	320.7171630859375	971.60302734375	1049.459594726562	352.6602172851562	928.43359375	1039.767700195312	271.7120971679688	1081.218627929688	824.205078125	292.8334655761719	1054.0615234375	807.8916015625	363.1649780273438	1001.262939453125	983.1848754882812	360.0058288574219	1100.258422851562	650.1681518554688	302.84521484375	1112.509399414062	722.5750732421875	304.206298828125	1069.80322265625	724.6371459960938	358.8004150390625	922.7335815429688	1593.95166015625	172.8066253662109	1090.097900390625	1623.494262695312	52.22126007080078	1081.362915039062	1624.192260742188	152.8150329589844	908.627685546875	1585.813598632812	28.9122371673584	967.7905883789062	914.3665161132812	-53.91278839111328	972.1187744140625	914.685546875	286.8310241699219	1075.941772460938	942.5123901367188	242.3913726806641	1091.741943359375	939.025390625	0.6722656488418579	985.5252685546875	454.104248046875	-38.47384643554688	995.9053955078125	594.1729736328125	-49.06336212158203	898.7420043945312	39.31960296630859	-20.29498672485352	938.9361572265625	241.1311950683594	-41.90921401977539	1105.4912109375	31.88334465026855	36.98642349243164	1024.386108398438	34.57344436645508	-34.80540466308594	865.2601928710938	33.26022338867188	46.81184005737305	968.3265380859375	452.9869689941406	259.43798828125	1028.201171875	708.543701171875	286.7852172851562	903.28955078125	43.67844772338867	228.7454833984375	967.979248046875	336.3552856445312	251.67333984375	1096.911987304688	32.32669830322266	182.939208984375	1041.86962890625	30.56330871582031	141.1186370849609	1002.423889160156	28.25212478637695	252.7156219482422	852.4437866210938	43.51985168457031	181.5507965087891	1035.76123046875	19.81937980651855	77.47062683105469	nan	nan	nan	nan	nan	nan	
